<svg xmlns="http://www.w3.org/2000/svg" xmlns:xlink="http://www.w3.org/1999/xlink" id="processonSvg1000" viewBox="92.33983462181887 27.4519054632815 540.5945487275026 2318.0242850129093" width="540.5945487275026" height="2318.0242850129093"><defs id="ProcessOnDefs1001"><marker id="ProcessOnMarker1241" markerUnits="userSpaceOnUse" orient="auto" markerWidth="16.23606797749979" markerHeight="10.550836550532098" viewBox="-1.0 -1.3763819204711736 16.23606797749979 10.550836550532098" refX="15.23606797749979" refY="3.8990363547948754"><path id="ProcessOnPath1242" d="M12.0 3.8990363547948754L0.0 7.798072709589751V0.0Z" stroke="#323232" stroke-width="2.0" fill="#323232" transform="matrix(-1.0,1.2246467991473532E-16,-1.2246467991473532E-16,-1.0,14.23606797749979,7.798072709589751)"/></marker><marker id="ProcessOnMarker1268" markerUnits="userSpaceOnUse" orient="auto" markerWidth="16.23606797749979" markerHeight="10.550836550532098" viewBox="-1.0 -1.3763819204711736 16.23606797749979 10.550836550532098" refX="-1.0" refY="3.8990363547948754"><path id="ProcessOnPath1269" d="M12.0 3.8990363547948754L0.0 7.798072709589751V0.0Z" stroke="#323232" stroke-width="2.0" fill="#323232" transform="matrix(1.0,0.0,0.0,1.0,0.0,0.0)"/></marker></defs><g id="ProcessOnG1002"><path id="ProcessOnPath1003" d="M92.33983462181887 27.4519054632815H632.9343833493215V2345.476190476191H92.33983462181891V27.45190546328149Z" fill="none"/><g id="ProcessOnG1004"><g id="ProcessOnG1005" transform="matrix(1.0,0.0,0.0,1.0,112.88542255465654,1086.611661066205)" opacity="1.0"><path id="ProcessOnPath1006" d="M0.0 0.0L498.48019689488 0.0L498.48019689488 139.7021897986965L0.0 139.7021897986965Z" stroke="#ff3333" stroke-width="1.0" stroke-dasharray="5.0 2.0" fill="none"/><g id="ProcessOnG1007" transform="matrix(1.0,0.0,0.0,1.0,10.0,61.726094899348254)"><text id="ProcessOnText1008" fill="#3333ff" font-size="13" x="0.0" y="13.325" font-family="Arial" font-weight="bold" font-style="normal" text-decoration="none" family="Arial" text-anchor="start" size="13">initialize</text></g></g><g id="ProcessOnG1009" transform="matrix(1.0,0.0,0.0,1.0,112.61916208461707,1247.1053113553105)" opacity="1.0"><path id="ProcessOnPath1010" d="M0.0 0.0L500.3152212647043 0.0L500.3152212647043 346.7161172161177L0.0 346.7161172161177Z" stroke="#ff0000" stroke-width="1.0" stroke-dasharray="5.0 2.0" fill="none"/><g id="ProcessOnG1011" transform="matrix(1.0,0.0,0.0,1.0,10.0,165.23305860805885)"><text id="ProcessOnText1012" fill="#3333ff" font-size="13" x="0.0" y="13.325" font-family="Arial" font-weight="bold" font-style="normal" text-decoration="none" family="Arial" text-anchor="start" size="13">add_tests</text></g></g><g id="ProcessOnG1013" transform="matrix(1.0,0.0,0.0,1.0,337.4134104565143,1267.0192416037708)" opacity="1.0"><path id="ProcessOnPath1014" d="M0.0 0.0L161.21581935060743 0.0L161.21581935060743 36.303075632226864L0.0 36.303075632226864Z" stroke="#323232" stroke-width="1.0" stroke-dasharray="none" fill="#ccff99"/><g id="ProcessOnG1015" transform="matrix(1.0,0.0,0.0,1.0,10.0,10.026537816113432)"><text id="ProcessOnText1016" fill="#323232" font-size="13" x="69.60790967530372" y="13.325" font-family="Courier New" font-weight="bold" font-style="normal" text-decoration="none" family="Courier New" text-anchor="middle" size="13">parsed testcase</text></g></g><g id="ProcessOnG1017" transform="matrix(1.0,0.0,0.0,1.0,282.9041074449991,1280.3754957963454)" opacity="1.0"><path id="ProcessOnPath1018" d="M0.0 0.0L161.21581935060743 0.0L161.21581935060743 36.303075632226864L0.0 36.303075632226864Z" stroke="#323232" stroke-width="1.0" stroke-dasharray="none" fill="#ccff99"/><g id="ProcessOnG1019" transform="matrix(1.0,0.0,0.0,1.0,10.0,10.026537816113432)"><text id="ProcessOnText1020" fill="#323232" font-size="13" x="69.60790967530372" y="13.325" font-family="Courier New" font-weight="bold" font-style="normal" text-decoration="none" family="Courier New" text-anchor="middle" size="13">parsed testcase</text></g></g><g id="ProcessOnG1021" transform="matrix(1.0,0.0,0.0,1.0,232.96367749151014,1444.6236263736241)" opacity="1.0"><path id="ProcessOnPath1022" d="M0.0 0.0L356.67372894043774 0.0L356.67372894043774 136.3406593406612L0.0 136.3406593406612Z" stroke="#323232" stroke-width="1.0" stroke-dasharray="none" fill="#ffffff"/><g id="ProcessOnG1023" transform="matrix(1.0,0.0,0.0,1.0,10.0,58.1703296703306)"><text id="ProcessOnText1024" fill="#323232" font-size="16" x="0.0" y="16.4" font-family="Courier New" font-weight="bold" font-style="normal" text-decoration="none" family="Courier New" text-anchor="start" size="16">unittest</text></g></g><g id="ProcessOnG1025" transform="matrix(1.0,0.0,0.0,1.0,327.12278250462106,1458.3890357311348)" opacity="1.0"><path id="ProcessOnPath1026" d="M0.0 0.0L250.93608328351058 0.0L250.93608328351058 113.28953569743635L0.0 113.28953569743635Z" stroke="#323232" stroke-width="1.0" stroke-dasharray="none" fill="#66ff66"/><g id="ProcessOnG1027" transform="matrix(1.0,0.0,0.0,1.0,10.0,46.644767848718175)"><text id="ProcessOnText1028" fill="#323232" font-size="16" x="0.0" y="16.4" font-family="Times New Roman" font-weight="bold" font-style="normal" text-decoration="none" family="Times New Roman" text-anchor="start" size="16">TestSuite</text></g></g><g id="ProcessOnG1029" transform="matrix(1.0,0.0,0.0,1.0,113.38300174111309,220.83333333333334)" opacity="1.0"><path id="ProcessOnPath1030" d="M0.0 0.0L497.4850385219669 0.0L497.4850385219669 430.83333333333314L0.0 430.83333333333314Z" stroke="#ff0000" stroke-width="1.0" stroke-dasharray="5.0 2.0" fill="none"/><g id="ProcessOnG1031" transform="matrix(1.0,0.0,0.0,1.0,10.0,207.29166666666657)"><text id="ProcessOnText1032" fill="#3333ff" font-size="13" x="0.0" y="13.325" font-family="Arial" font-weight="bold" font-style="normal" text-decoration="none" family="Arial" text-anchor="start" size="13">load_tests</text></g></g><g id="ProcessOnG1033" transform="matrix(1.0,0.0,0.0,1.0,233.11944069345282,521.6816654812568)" opacity="1.0"><path id="ProcessOnPath1034" d="M0.0 0.0L367.08430389944095 0.0L367.08430389944095 65.81833451874252L0.0 65.81833451874252Z" stroke="#3399ff" stroke-width="1.0" stroke-dasharray="5.0 2.0" fill="none"/><g id="ProcessOnG1035" transform="matrix(1.0,0.0,0.0,1.0,10.0,0.0)"><text id="ProcessOnText1036" fill="#00cc66" font-size="13" x="172.54215194972048" y="13.325" font-family="Arial" font-weight="bold" font-style="normal" text-decoration="none" family="Arial" text-anchor="middle" size="13">validate</text></g></g><g id="ProcessOnG1037" transform="matrix(1.0,0.0,0.0,1.0,112.33983462181887,670.4423076923075)" opacity="1.0"><path id="ProcessOnPath1038" d="M0.0 0.0L499.0132324826069 0.0L499.0132324826069 397.93269230769215L0.0 397.93269230769215Z" stroke="#ff0000" stroke-width="1.0" stroke-dasharray="5.0 2.0" fill="none"/><g id="ProcessOnG1039" transform="matrix(1.0,0.0,0.0,1.0,10.0,190.84134615384608)"><text id="ProcessOnText1040" fill="#3333ff" font-size="13" x="0.0" y="13.325" font-family="Arial" font-weight="bold" font-style="normal" text-decoration="none" family="Arial" text-anchor="start" size="13">parse_tests</text></g></g><g id="ProcessOnG1041" transform="matrix(1.0,0.0,0.0,1.0,113.21047703177533,2207.648206200245)" opacity="1.0"><path id="ProcessOnPath1042" d="M0.0 0.0L499.1325913703879 0.0L499.1325913703879 117.82798427594548L0.0 117.82798427594548Z" stroke="#ff0000" stroke-width="1.0" stroke-dasharray="5.0 2.0" fill="none"/><g id="ProcessOnG1043" transform="matrix(1.0,0.0,0.0,1.0,10.0,50.78899213797274)"><text id="ProcessOnText1044" fill="#3333ff" font-size="13" x="0.0" y="13.325" font-family="Arial" font-weight="bold" font-style="normal" text-decoration="none" family="Arial" text-anchor="start" size="13">report</text></g></g><g id="ProcessOnG1045" transform="matrix(1.0,0.0,0.0,1.0,112.66717341046166,1609.1814672255873)" opacity="1.0"><path id="ProcessOnPath1046" d="M0.0 0.0L500.2191986130151 0.0L500.2191986130151 475.6172242789887L0.0 475.6172242789887Z" stroke="#ff0000" stroke-width="1.0" stroke-dasharray="5.0 2.0" fill="none"/><g id="ProcessOnG1047" transform="matrix(1.0,0.0,0.0,1.0,10.0,229.68361213949436)"><text id="ProcessOnText1048" fill="#3333ff" font-size="13" x="0.0" y="13.325" font-family="Arial" font-weight="bold" font-style="normal" text-decoration="none" family="Arial" text-anchor="start" size="13">runner</text></g></g><g id="ProcessOnG1049" transform="matrix(1.0,0.0,0.0,1.0,232.5248560973461,1678.309523809528)" opacity="1.0"><path id="ProcessOnPath1050" d="M0.0 0.0L360.3774785009274 0.0L360.3774785009274 337.36111111111074L0.0 337.36111111111074Z" stroke="#66cc00" stroke-width="1.0" stroke-dasharray="1.0 1.5" fill="#cce5ff"/><g id="ProcessOnG1051" transform="matrix(1.0,0.0,0.0,1.0,10.0,152.43055555555537)"><text id="ProcessOnText1052" fill="#ff00ff" font-size="13" x="0.0" y="13.325" font-family="Arial" font-weight="normal" font-style="normal" text-decoration="none" family="Arial" text-anchor="start" size="13">teststep</text><text id="ProcessOnText1053" fill="#ff00ff" font-size="13" x="0.0" y="29.575" font-family="Arial" font-weight="normal" font-style="normal" text-decoration="none" family="Arial" text-anchor="start" size="13">iteration</text></g></g><g id="ProcessOnG1054" transform="matrix(1.0,0.0,0.0,1.0,113.27041379948983,47.4519054632815)" opacity="1.0"><path id="ProcessOnPath1055" d="M0.0 0.0L498.3614661200861 0.0L498.3614661200861 158.0152909970355L0.0 158.0152909970355Z" stroke="#ff3333" stroke-width="1.0" stroke-dasharray="5.0 2.0" fill="none"/><g id="ProcessOnG1056" transform="matrix(1.0,0.0,0.0,1.0,10.0,70.88264549851775)"><text id="ProcessOnText1057" fill="#3333ff" font-size="13" x="0.0" y="13.325" font-family="Arial" font-weight="bold" font-style="normal" text-decoration="none" family="Arial" text-anchor="start" size="13"> prepare</text></g></g><g id="ProcessOnG1058" transform="matrix(1.0,0.0,0.0,1.0,234.06815237230134,67.42662086911432)" opacity="1.0"><path id="ProcessOnPath1059" d="M0.0 0.0L119.9535525822713 0.0L119.9535525822713 38.696035837626695L0.0 38.696035837626695Z" stroke="#323232" stroke-width="1.0" stroke-dasharray="none" fill="#ccccff"/><g id="ProcessOnG1060" transform="matrix(1.0,0.0,0.0,1.0,10.0,4.348017918813348)"><text id="ProcessOnText1061" fill="#323232" font-size="12" x="48.97677629113565" y="12.3" font-family="Times New Roman" font-weight="normal" font-style="normal" text-decoration="none" family="Times New Roman" text-anchor="middle" size="12">HAR</text><text id="ProcessOnText1062" fill="#323232" font-size="12" x="48.97677629113565" y="27.3" font-family="Times New Roman" font-weight="normal" font-style="normal" text-decoration="none" family="Times New Roman" text-anchor="middle" size="12">Charles/Fiddler</text></g></g><g id="ProcessOnG1063" transform="matrix(1.0,0.0,0.0,1.0,354.0217049545728,67.28919367977625)" opacity="1.0"><path id="ProcessOnPath1064" d="M0.0 0.0L120.57366391374057 0.0L120.57366391374057 39.56268990143752L0.0 39.56268990143752Z" stroke="#323232" stroke-width="1.0" stroke-dasharray="none" fill="#ccffff"/><g id="ProcessOnG1065" transform="matrix(1.0,0.0,0.0,1.0,10.0,3.5313449507187613)"><text id="ProcessOnText1066" fill="#323232" font-size="13" x="49.28683195687029" y="13.325" font-family="Times New Roman" font-weight="normal" font-style="normal" text-decoration="none" family="Times New Roman" text-anchor="middle" size="13">Postman</text><text id="ProcessOnText1067" fill="#323232" font-size="13" x="49.28683195687029" y="29.575" font-family="Times New Roman" font-weight="normal" font-style="normal" text-decoration="none" family="Times New Roman" text-anchor="middle" size="13">collection</text></g></g><g id="ProcessOnG1068" transform="matrix(1.0,0.0,0.0,1.0,234.06815237230134,106.12265670674105)" opacity="1.0"><path id="ProcessOnPath1069" d="M0.0 0.0L240.32661118015523 0.0L240.32661118015523 40.59549987498171L0.0 40.59549987498171Z" stroke="#323232" stroke-width="1.0" stroke-dasharray="none" fill="#ffff66"/><g id="ProcessOnG1070" transform="matrix(1.0,0.0,0.0,1.0,10.0,12.172749937490856)"><text id="ProcessOnText1071" fill="#323232" font-size="13" x="109.16330559007761" y="13.325" font-family="Courier New" font-weight="bold" font-style="normal" text-decoration="none" family="Courier New" text-anchor="middle" size="13">record &amp; generate</text></g></g><g id="ProcessOnG1072" transform="matrix(1.0,0.0,0.0,1.0,234.06815237230134,146.71815658172244)" opacity="1.0"><path id="ProcessOnPath1073" d="M0.0 0.0L119.9535525822713 0.0L119.9535525822713 39.673719164991724L0.0 39.673719164991724Z" stroke="#323232" stroke-width="1.0" stroke-dasharray="none" fill="#cfcfcf"/><g id="ProcessOnG1074" transform="matrix(1.0,0.0,0.0,1.0,10.0,11.711859582495862)"><text id="ProcessOnText1075" fill="#323232" font-size="13" x="48.97677629113565" y="13.325" font-family="Arial" font-weight="normal" font-style="normal" text-decoration="none" family="Arial" text-anchor="middle" size="13">JSON</text></g></g><g id="ProcessOnG1076" transform="matrix(1.0,0.0,0.0,1.0,233.4234599167679,458.89988419640457)" opacity="1.0"><path id="ProcessOnPath1077" d="M0.0 0.0L366.4762654528107 0.0L366.4762654528107 45.76137121485101L0.0 45.76137121485101Z" stroke="#323232" stroke-width="1.0" stroke-dasharray="none" fill="#ffffff"/><g id="ProcessOnG1078" transform="matrix(1.0,0.0,0.0,1.0,10.0,14.755685607425505)"><text id="ProcessOnText1079" fill="#323232" font-size="13" x="0.0" y="13.325" font-family="Courier New" font-weight="bold" font-style="normal" text-decoration="none" family="Courier New" text-anchor="start" size="13">file loader</text></g></g><g id="ProcessOnG1080" transform="matrix(1.0,0.0,0.0,1.0,349.94281175168095,467.6351780925447)" opacity="1.0"><path id="ProcessOnPath1081" d="M0.0 0.0L60.11083217216599 0.0L60.11083217216599 26.72838770448834L0.0 26.72838770448834Z" stroke="#323232" stroke-width="1.0" stroke-dasharray="none" fill="#ffffff"/><g id="ProcessOnG1082" transform="matrix(1.0,0.0,0.0,1.0,10.0,5.239193852244171)"><text id="ProcessOnText1083" fill="#323232" font-size="13" x="19.055416086082996" y="13.325" font-family="Times New Roman" font-weight="normal" font-style="normal" text-decoration="none" family="Times New Roman" text-anchor="middle" size="13">api</text></g></g><g id="ProcessOnG1084" transform="matrix(1.0,0.0,0.0,1.0,420.2674902757755,468.199250711168)" opacity="1.0"><path id="ProcessOnPath1085" d="M0.0 0.0L71.26713035346097 0.0L71.26713035346097 26.0709230991921L0.0 26.0709230991921Z" stroke="#323232" stroke-width="1.0" stroke-dasharray="none" fill="#ffffff"/><g id="ProcessOnG1086" transform="matrix(1.0,0.0,0.0,1.0,10.0,-3.21453845040395)"><text id="ProcessOnText1087" fill="#323232" font-size="13" x="24.633565176730485" y="13.325" font-family="Times New Roman" font-weight="normal" font-style="normal" text-decoration="none" family="Times New Roman" text-anchor="middle" size="13">testcase</text><text id="ProcessOnText1088" fill="#323232" font-size="13" x="24.633565176730485" y="29.575" font-family="Times New Roman" font-weight="normal" font-style="normal" text-decoration="none" family="Times New Roman" text-anchor="middle" size="13">s</text></g></g><g id="ProcessOnG1089" transform="matrix(1.0,0.0,0.0,1.0,503.84647887455526,469.15661248130175)" opacity="1.0"><path id="ProcessOnPath1090" d="M0.0 0.0L68.14058888428156 0.0L68.14058888428156 25.247914645056653L0.0 25.247914645056653Z" stroke="#323232" stroke-width="1.0" stroke-dasharray="none" fill="#ffffff"/><g id="ProcessOnG1091" transform="matrix(1.0,0.0,0.0,1.0,10.0,-3.6260426774716734)"><text id="ProcessOnText1092" fill="#323232" font-size="13" x="23.070294442140778" y="13.325" font-family="Times New Roman" font-weight="normal" font-style="normal" text-decoration="none" family="Times New Roman" text-anchor="middle" size="13">testsuite</text><text id="ProcessOnText1093" fill="#323232" font-size="13" x="23.070294442140778" y="29.575" font-family="Times New Roman" font-weight="normal" font-style="normal" text-decoration="none" family="Times New Roman" text-anchor="middle" size="13">s</text></g></g><g id="ProcessOnG1094" transform="matrix(1.0,0.0,0.0,1.0,228.91043277822644,958.5410658480989)" opacity="1.0"><path id="ProcessOnPath1095" d="M0.0 0.0L157.96737186622707 0.0L157.96737186622707 38.636618204456L0.0 38.636618204456Z" stroke="#323232" stroke-width="1.0" stroke-dasharray="none" fill="#ffffff"/><g id="ProcessOnG1096" transform="matrix(1.0,0.0,0.0,1.0,10.0,3.0683091022279996)"><text id="ProcessOnText1097" fill="#323232" font-size="13" x="67.98368593311353" y="13.325" font-family="Courier New" font-weight="bold" font-style="normal" text-decoration="none" family="Courier New" text-anchor="middle" size="13">parse config </text><text id="ProcessOnText1098" fill="#323232" font-size="13" x="67.98368593311353" y="29.575" font-family="Courier New" font-weight="bold" font-style="normal" text-decoration="none" family="Courier New" text-anchor="middle" size="13">name</text></g></g><g id="ProcessOnG1099" transform="matrix(1.0,0.0,0.0,1.0,229.42258084981347,1013.1071428571423)" opacity="1.0"><path id="ProcessOnPath1100" d="M0.0 0.0L360.26462701927693 0.0L360.26462701927693 38.571428571428555L0.0 38.571428571428555Z" stroke="#323232" stroke-width="1.0" stroke-dasharray="none" fill="#ccff99"/><g id="ProcessOnG1101" transform="matrix(1.0,0.0,0.0,1.0,10.0,11.160714285714278)"><text id="ProcessOnText1102" fill="#323232" font-size="13" x="169.13231350963846" y="13.325" font-family="Courier New" font-weight="bold" font-style="normal" text-decoration="none" family="Courier New" text-anchor="middle" size="13">parsed testcases(list)</text></g></g><g id="ProcessOnG1103" transform="matrix(1.0,0.0,0.0,1.0,408.2012022233929,959.0295723678073)" opacity="1.0"><path id="ProcessOnPath1104" d="M0.0 0.0L180.5538936805524 0.0L180.5538936805524 37.65960516503924L0.0 37.65960516503924Z" stroke="#323232" stroke-width="1.0" stroke-dasharray="none" fill="#ffffff"/><g id="ProcessOnG1105" transform="matrix(1.0,0.0,0.0,1.0,10.0,2.579802582519619)"><text id="ProcessOnText1106" fill="#323232" font-size="13" x="79.2769468402762" y="13.325" font-family="Courier New" font-weight="bold" font-style="normal" text-decoration="none" family="Courier New" text-anchor="middle" size="13">parse config </text><text id="ProcessOnText1107" fill="#323232" font-size="13" x="79.2769468402762" y="29.575" font-family="Courier New" font-weight="bold" font-style="normal" text-decoration="none" family="Courier New" text-anchor="middle" size="13">request</text></g></g><g id="ProcessOnG1108" transform="matrix(1.0,0.0,0.0,1.0,242.07165402404743,538.5198465225878)" opacity="1.0"><path id="ProcessOnPath1109" d="M0.0 0.0L168.43722155141722 0.0L168.43722155141722 38.75753022080437L0.0 38.75753022080437Z" stroke="#323232" stroke-width="1.0" stroke-dasharray="none" fill="#ffffff"/><g id="ProcessOnG1110" transform="matrix(1.0,0.0,0.0,1.0,10.0,3.1287651104021847)"><text id="ProcessOnText1111" fill="#323232" font-size="13" x="73.21861077570861" y="13.325" font-family="Courier New" font-weight="bold" font-style="normal" text-decoration="none" family="Courier New" text-anchor="middle" size="13">JSON Schema </text><text id="ProcessOnText1112" fill="#323232" font-size="13" x="73.21861077570861" y="29.575" font-family="Courier New" font-weight="bold" font-style="normal" text-decoration="none" family="Courier New" text-anchor="middle" size="13">Validate</text></g></g><g id="ProcessOnG1113" transform="matrix(1.0,0.0,0.0,1.0,232.30895751688905,1359.4196425746597)" opacity="1.0"><path id="ProcessOnPath1114" d="M0.0 0.0L293.0503870024336 0.0L293.0503870024336 57.78913651707876L0.0 57.78913651707876Z" stroke="#323232" stroke-width="1.0" stroke-dasharray="none" fill="#ffffff"/><g id="ProcessOnG1115" transform="matrix(1.0,0.0,0.0,1.0,10.0,18.89456825853938)"><text id="ProcessOnText1116" fill="#323232" font-size="16" x="0.0" y="16.4" font-family="Courier New" font-weight="bold" font-style="normal" text-decoration="none" family="Courier New" text-anchor="start" size="16">Runner()</text></g></g><g id="ProcessOnG1117" transform="matrix(1.0,0.0,0.0,1.0,325.9341795765353,1368.814210833199)" opacity="1.0"><path id="ProcessOnPath1118" d="M0.0 0.0L77.33840442160249 0.0L77.33840442160249 39.0L0.0 39.0Z" stroke="#323232" stroke-width="1.0" stroke-dasharray="none" fill="#ffffff"/><g id="ProcessOnG1119" transform="matrix(1.0,0.0,0.0,1.0,10.0,11.375)"><text id="ProcessOnText1120" fill="#323232" font-size="13" x="27.669202210801245" y="13.325" font-family="Arial" font-weight="normal" font-style="normal" text-decoration="none" family="Arial" text-anchor="middle" size="13">Context()</text></g></g><g id="ProcessOnG1121" transform="matrix(1.0,0.0,0.0,1.0,411.2245609624021,1368.8142108331995)" opacity="1.0"><path id="ProcessOnPath1122" d="M0.0 0.0L98.79213668284427 0.0L98.79213668284427 38.99999999999909L0.0 38.99999999999909Z" stroke="#323232" stroke-width="1.0" stroke-dasharray="none" fill="#ffffff"/><g id="ProcessOnG1123" transform="matrix(1.0,0.0,0.0,1.0,10.0,3.2499999999995453)"><text id="ProcessOnText1124" fill="#323232" font-size="13" x="38.396068341422136" y="13.325" font-family="Arial" font-weight="normal" font-style="normal" text-decoration="none" family="Arial" text-anchor="middle" size="13">HttpSession(</text><text id="ProcessOnText1125" fill="#323232" font-size="13" x="38.396068341422136" y="29.575" font-family="Arial" font-weight="normal" font-style="normal" text-decoration="none" family="Arial" text-anchor="middle" size="13">)</text></g></g><g id="ProcessOnG1126" transform="matrix(1.0,0.0,0.0,1.0,408.2864240537298,1474.2390109890125)" opacity="1.0"><path id="ProcessOnPath1127" d="M0.0 0.0L154.08327717118993 0.0L154.08327717118993 35.29670329670148L0.0 35.29670329670148Z" stroke="#323232" stroke-width="1.0" stroke-dasharray="none" fill="#66ff66"/><g id="ProcessOnG1128" transform="matrix(1.0,0.0,0.0,1.0,10.0,8.89835164835074)"><text id="ProcessOnText1129" fill="#323232" font-size="14" x="66.04163858559497" y="14.350000000000001" font-family="Times New Roman" font-weight="bold" font-style="normal" text-decoration="none" family="Times New Roman" text-anchor="middle" size="14">TestCase</text></g></g><g id="ProcessOnG1130" transform="matrix(1.0,0.0,0.0,1.0,232.39060265065177,1627.630005948649)" opacity="1.0"><path id="ProcessOnPath1131" d="M0.0 0.0L360.5987143440685 0.0L360.5987143440685 39.836786031304655L0.0 39.836786031304655Z" stroke="#323232" stroke-width="1.0" stroke-dasharray="none" fill="#66ffff"/><g id="ProcessOnG1132" transform="matrix(1.0,0.0,0.0,1.0,10.0,11.793393015652327)"><text id="ProcessOnText1133" fill="#323232" font-size="13" x="169.29935717203426" y="13.325" font-family="Courier New" font-weight="bold" font-style="normal" text-decoration="none" family="Courier New" text-anchor="middle" size="13">testcase setup hooks</text></g></g><g id="ProcessOnG1134" transform="matrix(1.0,0.0,0.0,1.0,232.24361590786273,2030.5978422059552)" opacity="1.0"><path id="ProcessOnPath1135" d="M0.0 0.0L360.5987143440685 0.0L360.5987143440685 39.836786031304655L0.0 39.836786031304655Z" stroke="#323232" stroke-width="1.0" stroke-dasharray="none" fill="#33ffff"/><g id="ProcessOnG1136" transform="matrix(1.0,0.0,0.0,1.0,10.0,11.793393015652327)"><text id="ProcessOnText1137" fill="#323232" font-size="13" x="169.29935717203426" y="13.325" font-family="Courier New" font-weight="bold" font-style="normal" text-decoration="none" family="Courier New" text-anchor="middle" size="13">testcase teardown hooks</text></g></g><g id="ProcessOnG1138" transform="matrix(1.0,0.0,0.0,1.0,332.1762113922986,1689.4957523369387)" opacity="1.0"><path id="ProcessOnPath1139" d="M0.0 0.0L240.82922550815533 0.0L240.82922550815533 37.89473684210532L0.0 37.89473684210532Z" stroke="#323232" stroke-width="1.0" stroke-dasharray="none" fill="#cfcfcf"/><g id="ProcessOnG1140" transform="matrix(1.0,0.0,0.0,1.0,10.0,10.822368421052659)"><text id="ProcessOnText1141" fill="#323232" font-size="13" x="109.41461275407767" y="13.325" font-family="Arial" font-weight="normal" font-style="normal" text-decoration="none" family="Arial" text-anchor="middle" size="13">check if skip</text></g></g><g id="ProcessOnG1142" transform="matrix(1.0,0.0,0.0,1.0,332.17621139229874,1727.3904891790442)" opacity="1.0"><path id="ProcessOnPath1143" d="M0.0 0.0L240.82922550815522 0.0L240.82922550815522 39.18546365914767L0.0 39.18546365914767Z" stroke="#323232" stroke-width="1.0" stroke-dasharray="none" fill="#ffcce6"/><g id="ProcessOnG1144" transform="matrix(1.0,0.0,0.0,1.0,10.0,11.467731829573836)"><text id="ProcessOnText1145" fill="#323232" font-size="13" x="109.41461275407761" y="13.325" font-family="Arial" font-weight="normal" font-style="normal" text-decoration="none" family="Arial" text-anchor="middle" size="13">prepare API</text></g></g><g id="ProcessOnG1146" transform="matrix(1.0,0.0,0.0,1.0,331.95422786204443,1766.5759528381918)" opacity="1.0"><path id="ProcessOnPath1147" d="M0.0 0.0L241.27319256866372 0.0L241.27319256866372 40.476190476190595L0.0 40.476190476190595Z" stroke="#323232" stroke-width="1.0" stroke-dasharray="none" fill="#66ffff"/><g id="ProcessOnG1148" transform="matrix(1.0,0.0,0.0,1.0,10.0,12.113095238095298)"><text id="ProcessOnText1149" fill="#323232" font-size="13" x="109.63659628433186" y="13.325" font-family="Arial" font-weight="normal" font-style="normal" text-decoration="none" family="Arial" text-anchor="middle" size="13">api setup hooks</text></g></g><g id="ProcessOnG1150" transform="matrix(1.0,0.0,0.0,1.0,331.791643635635,1807.0521433143822)" opacity="1.0"><path id="ProcessOnPath1151" d="M0.0 0.0L241.59836102148256 0.0L241.59836102148256 39.63659147869646L0.0 39.63659147869646Z" stroke="#323232" stroke-width="1.0" stroke-dasharray="none" fill="#ffff00"/><g id="ProcessOnG1152" transform="matrix(1.0,0.0,0.0,1.0,10.0,11.69329573934823)"><text id="ProcessOnText1153" fill="#323232" font-size="13" x="109.79918051074128" y="13.325" font-family="Arial" font-weight="normal" font-style="normal" text-decoration="none" family="Arial" text-anchor="middle" size="13">send request</text></g></g><g id="ProcessOnG1154" transform="matrix(1.0,0.0,0.0,1.0,331.95422786204466,1885.34137966283)" opacity="1.0"><path id="ProcessOnPath1155" d="M0.0 0.0L241.2731925686635 0.0L241.2731925686635 39.6806884635829L0.0 39.6806884635829Z" stroke="#323232" stroke-width="1.0" stroke-dasharray="none" fill="#66ffff"/><g id="ProcessOnG1156" transform="matrix(1.0,0.0,0.0,1.0,10.0,11.715344231791448)"><text id="ProcessOnText1157" fill="#323232" font-size="13" x="109.63659628433174" y="13.325" font-family="Arial" font-weight="normal" font-style="normal" text-decoration="none" family="Arial" text-anchor="middle" size="13">api teardown hooks</text></g></g><g id="ProcessOnG1158" transform="matrix(1.0,0.0,0.0,1.0,331.95422786204466,1925.3413796628301)" opacity="1.0"><path id="ProcessOnPath1159" d="M0.0 0.0L241.2731925686635 0.0L241.2731925686635 39.6806884635829L0.0 39.6806884635829Z" stroke="#323232" stroke-width="1.0" stroke-dasharray="none" fill="#ffb366"/><g id="ProcessOnG1160" transform="matrix(1.0,0.0,0.0,1.0,10.0,11.715344231791448)"><text id="ProcessOnText1161" fill="#323232" font-size="13" x="109.63659628433174" y="13.325" font-family="Arial" font-weight="normal" font-style="normal" text-decoration="none" family="Arial" text-anchor="middle" size="13">extract response</text></g></g><g id="ProcessOnG1162" transform="matrix(1.0,0.0,0.0,1.0,332.4427102572061,1965.022068126409)" opacity="1.0"><path id="ProcessOnPath1163" d="M0.0 0.0L240.2962277783406 0.0L240.2962277783406 40.416666666666515L0.0 40.416666666666515Z" stroke="#323232" stroke-width="1.0" stroke-dasharray="none" fill="#ff66ff"/><g id="ProcessOnG1164" transform="matrix(1.0,0.0,0.0,1.0,10.0,12.083333333333258)"><text id="ProcessOnText1165" fill="#323232" font-size="13" x="109.1481138891703" y="13.325" font-family="Arial" font-weight="normal" font-style="normal" text-decoration="none" family="Arial" text-anchor="middle" size="13">validate</text></g></g><g id="ProcessOnG1166" transform="matrix(1.0,0.0,0.0,1.0,112.9448745740657,2107.4739777602435)" opacity="1.0"><path id="ProcessOnPath1167" d="M0.0 0.0L499.66379628580717 0.0L499.66379628580717 77.823641287373L0.0 77.823641287373Z" stroke="#ff0000" stroke-width="1.0" stroke-dasharray="5.0 2.0" fill="none"/><g id="ProcessOnG1168" transform="matrix(1.0,0.0,0.0,1.0,10.0,30.786820643686497)"><text id="ProcessOnText1169" fill="#3333ff" font-size="13" x="0.0" y="13.325" font-family="Arial" font-weight="bold" font-style="normal" text-decoration="none" family="Arial" text-anchor="start" size="13">aggregate</text></g></g><g id="ProcessOnG1170" transform="matrix(1.0,0.0,0.0,1.0,232.75387687043911,2128.518477126587)" opacity="1.0"><path id="ProcessOnPath1171" d="M0.0 0.0L360.5987143440685 0.0L360.5987143440685 39.836786031304655L0.0 39.836786031304655Z" stroke="#323232" stroke-width="1.0" stroke-dasharray="none" fill="#ffff66"/><g id="ProcessOnG1172" transform="matrix(1.0,0.0,0.0,1.0,10.0,11.793393015652327)"><text id="ProcessOnText1173" fill="#323232" font-size="13" x="169.29935717203426" y="13.325" font-family="Courier New" font-weight="bold" font-style="normal" text-decoration="none" family="Courier New" text-anchor="middle" size="13">aggregate results</text></g></g><g id="ProcessOnG1174" transform="matrix(1.0,0.0,0.0,1.0,232.30362025420487,2268.585331342556)" opacity="1.0"><path id="ProcessOnPath1175" d="M0.0 0.0L360.5987143440685 0.0L360.5987143440685 39.836786031304655L0.0 39.836786031304655Z" stroke="#323232" stroke-width="1.0" stroke-dasharray="none" fill="#ffff66"/><g id="ProcessOnG1176" transform="matrix(1.0,0.0,0.0,1.0,10.0,11.793393015652327)"><text id="ProcessOnText1177" fill="#323232" font-size="13" x="169.29935717203426" y="13.325" font-family="Courier New" font-weight="bold" font-style="normal" text-decoration="none" family="Courier New" text-anchor="middle" size="13">generate html report</text></g></g><g id="ProcessOnG1178" transform="matrix(1.0,0.0,0.0,1.0,232.75387687043911,2227.797619047623)" opacity="1.0"><path id="ProcessOnPath1179" d="M0.0 0.0L180.45231324637427 0.0L180.45231324637427 40.592448934823096L0.0 40.592448934823096Z" stroke="#323232" stroke-width="1.0" stroke-dasharray="none" fill="#99ccff"/><g id="ProcessOnG1180" transform="matrix(1.0,0.0,0.0,1.0,10.0,12.171224467411548)"><text id="ProcessOnText1181" fill="#323232" font-size="13" x="79.22615662318714" y="13.325" font-family="Arial" font-weight="normal" font-style="normal" text-decoration="none" family="Arial" text-anchor="middle" size="13">default template</text></g></g><g id="ProcessOnG1182" transform="matrix(1.0,0.0,0.0,1.0,413.2061901168134,2227.388673713562)" opacity="1.0"><path id="ProcessOnPath1183" d="M0.0 0.0L179.69614448146007 0.0L179.69614448146007 41.41033960294408L0.0 41.41033960294408Z" stroke="#323232" stroke-width="1.0" stroke-dasharray="none" fill="#9999ff"/><g id="ProcessOnG1184" transform="matrix(1.0,0.0,0.0,1.0,10.0,12.580169801472039)"><text id="ProcessOnText1185" fill="#323232" font-size="13" x="78.84807224073003" y="13.325" font-family="Arial" font-weight="normal" font-style="normal" text-decoration="none" family="Arial" text-anchor="middle" size="13">custom template</text></g></g><g id="ProcessOnG1186" transform="matrix(1.0,0.0,0.0,1.0,331.49653118821806,1846.8084766192353)" opacity="1.0"><path id="ProcessOnPath1187" d="M0.0 0.0L242.18858591631658 0.0L242.18858591631658 38.58438052362533L0.0 38.58438052362533Z" stroke="#323232" stroke-width="1.0" stroke-dasharray="none" fill="#99ccff"/><g id="ProcessOnG1188" transform="matrix(1.0,0.0,0.0,1.0,10.0,11.167190261812664)"><text id="ProcessOnText1189" fill="#323232" font-size="13" x="110.09429295815829" y="13.325" font-family="Arial" font-weight="normal" font-style="normal" text-decoration="none" family="Arial" text-anchor="middle" size="13">make ResponseObject</text></g></g><g id="ProcessOnG1190" transform="matrix(1.0,0.0,0.0,1.0,354.44121097018535,146.7181565817225)" opacity="1.0"><path id="ProcessOnPath1191" d="M0.0 0.0L119.9535525822713 0.0L119.9535525822713 39.673719164991724L0.0 39.673719164991724Z" stroke="#323232" stroke-width="1.0" stroke-dasharray="none" fill="#cfcfcf"/><g id="ProcessOnG1192" transform="matrix(1.0,0.0,0.0,1.0,10.0,11.711859582495862)"><text id="ProcessOnText1193" fill="#323232" font-size="13" x="48.97677629113565" y="13.325" font-family="Arial" font-weight="normal" font-style="normal" text-decoration="none" family="Arial" text-anchor="middle" size="13">YAML</text></g></g><g id="ProcessOnG1194" transform="matrix(1.0,0.0,0.0,1.0,489.0512741938859,146.83624959819713)" opacity="1.0"><path id="ProcessOnPath1195" d="M0.0 0.0L110.17512558531087 0.0L110.17512558531087 39.43753313204235L0.0 39.43753313204235Z" stroke="#323232" stroke-width="1.0" stroke-dasharray="none" fill="#cfcfcf"/><g id="ProcessOnG1196" transform="matrix(1.0,0.0,0.0,1.0,10.0,11.593766566021174)"><text id="ProcessOnText1197" fill="#323232" font-size="13" x="44.08756279265543" y="13.325" font-family="Arial" font-weight="normal" font-style="normal" text-decoration="none" family="Arial" text-anchor="middle" size="13">.env</text></g></g><g id="ProcessOnG1198" transform="matrix(1.0,0.0,0.0,1.0,488.6776347452603,86.44114827147351)" opacity="1.0"><path id="ProcessOnPath1199" d="M0.0 0.0L110.92240448256211 0.0L110.92240448256211 39.67789934757417L0.0 39.67789934757417Z" stroke="#323232" stroke-width="1.0" stroke-dasharray="none" fill="#b8b8b8"/><g id="ProcessOnG1200" transform="matrix(1.0,0.0,0.0,1.0,10.0,11.713949673787084)"><text id="ProcessOnText1201" fill="#323232" font-size="13" x="44.46120224128106" y="13.325" font-family="Arial" font-weight="normal" font-style="normal" text-decoration="none" family="Arial" text-anchor="middle" size="13">debugtalk.py</text></g></g><g id="ProcessOnG1202" transform="matrix(1.0,0.0,0.0,1.0,233.46824659817423,599.7531256992314)" opacity="1.0"><path id="ProcessOnPath1203" d="M0.0 0.0L366.3866920899981 0.0L366.3866920899981 39.41354096743453L0.0 39.41354096743453Z" stroke="#323232" stroke-width="1.0" stroke-dasharray="none" fill="#ffcc99"/><g id="ProcessOnG1204" transform="matrix(1.0,0.0,0.0,1.0,10.0,11.581770483717264)"><text id="ProcessOnText1205" fill="#323232" font-size="13" x="172.19334604499906" y="13.325" font-family="Courier New" font-weight="bold" font-style="normal" text-decoration="none" family="Courier New" text-anchor="middle" size="13">Raw valid data</text></g></g><g id="ProcessOnG1206" transform="matrix(1.0,0.0,0.0,1.0,429.3905887134148,538.4399184115022)" opacity="1.0"><path id="ProcessOnPath1207" d="M0.0 0.0L153.94780990051652 0.0L153.94780990051652 38.91738644297561L0.0 38.91738644297561Z" stroke="#323232" stroke-width="1.0" stroke-dasharray="none" fill="#ffffff"/><g id="ProcessOnG1208" transform="matrix(1.0,0.0,0.0,1.0,10.0,11.333693221487806)"><text id="ProcessOnText1209" fill="#323232" font-size="13" x="65.97390495025826" y="13.325" font-family="Courier New" font-weight="bold" font-style="normal" text-decoration="none" family="Courier New" text-anchor="middle" size="13">.env validate</text></g></g><g id="ProcessOnG1210" transform="matrix(1.0,0.0,0.0,1.0,233.64450265680318,347.6646610093986)" opacity="1.0"><path id="ProcessOnPath1211" d="M0.0 0.0L366.11895624108945 0.0L366.11895624108945 42.97375366848877L0.0 42.97375366848877Z" stroke="#323232" stroke-width="1.0" stroke-dasharray="none" fill="#ffffff"/><g id="ProcessOnG1212" transform="matrix(1.0,0.0,0.0,1.0,10.0,13.361876834244384)"><text id="ProcessOnText1213" fill="#323232" font-size="13" x="172.05947812054472" y="13.325" font-family="Courier New" font-weight="bold" font-style="normal" text-decoration="none" family="Courier New" text-anchor="middle" size="13">import builtin module</text></g></g><g id="ProcessOnG1214" transform="matrix(1.0,0.0,0.0,1.0,229.5184860637555,852.6089343710092)" opacity="1.0"><path id="ProcessOnPath1215" d="M0.0 0.0L360.5987143440685 0.0L360.5987143440685 39.836786031304655L0.0 39.836786031304655Z" stroke="#323232" stroke-width="1.0" stroke-dasharray="none" fill="#ffffff"/><g id="ProcessOnG1216" transform="matrix(1.0,0.0,0.0,1.0,10.0,11.793393015652327)"><text id="ProcessOnText1217" fill="#323232" font-size="13" x="169.29935717203426" y="13.325" font-family="Courier New" font-weight="bold" font-style="normal" text-decoration="none" family="Courier New" text-anchor="middle" size="13">parse config variables</text></g></g><g id="ProcessOnG1218" transform="matrix(1.0,0.0,0.0,1.0,229.0497360637555,904.4839343710094)" opacity="1.0"><path id="ProcessOnPath1219" d="M0.0 0.0L360.5987143440685 0.0L360.5987143440685 39.836786031304655L0.0 39.836786031304655Z" stroke="#323232" stroke-width="1.0" stroke-dasharray="none" fill="#ffffff"/><g id="ProcessOnG1220" transform="matrix(1.0,0.0,0.0,1.0,10.0,11.793393015652327)"><text id="ProcessOnText1221" fill="#323232" font-size="13" x="169.29935717203426" y="13.325" font-family="Courier New" font-weight="bold" font-style="normal" text-decoration="none" family="Courier New" text-anchor="middle" size="13">parse config parameters</text></g></g><g id="ProcessOnG1222" transform="matrix(1.0,0.0,0.0,1.0,230.20229693857172,690.9282891832243)" opacity="1.0"><path id="ProcessOnPath1223" d="M0.0 0.0L143.64506571884846 0.0L143.64506571884846 92.18068517574778L0.0 92.18068517574778Z" stroke="#323232" stroke-width="1.0" stroke-dasharray="none" fill="#ffffff"/><g id="ProcessOnG1224" transform="matrix(1.0,0.0,0.0,1.0,10.0,37.96534258787389)"><text id="ProcessOnText1225" fill="#323232" font-size="13" x="60.82253285942423" y="13.325" font-family="Courier New" font-weight="bold" font-style="normal" text-decoration="none" family="Courier New" text-anchor="middle" size="13">extend &amp; merge </text></g></g><g id="ProcessOnG1226" transform="matrix(1.0,0.0,0.0,1.0,230.20614864773185,796.4279508740539)" opacity="1.0"><path id="ProcessOnPath1227" d="M0.0 0.0L360.07936348760376 0.0L360.07936348760376 39.097690151583606L0.0 39.097690151583606Z" stroke="#323232" stroke-width="1.0" stroke-dasharray="none" fill="#ccccff"/><g id="ProcessOnG1228" transform="matrix(1.0,0.0,0.0,1.0,10.0,11.423845075791803)"><text id="ProcessOnText1229" fill="#323232" font-size="13" x="169.03968174380188" y="13.325" font-family="Courier New" font-weight="bold" font-style="normal" text-decoration="none" family="Courier New" text-anchor="middle" size="13">valid testcases</text></g></g><g id="ProcessOnG1230" transform="matrix(1.0,0.0,0.0,1.0,373.739891080212,690.9282891832243)" opacity="1.0"><path id="ProcessOnPath1231" d="M0.0 0.0L215.01520482373337 0.0L215.01520482373337 46.24871870210825L0.0 46.24871870210825Z" stroke="#323232" stroke-width="1.0" stroke-dasharray="none" fill="#ffffff"/><g id="ProcessOnG1232" transform="matrix(1.0,0.0,0.0,1.0,10.0,6.8743593510541245)"><text id="ProcessOnText1233" fill="#323232" font-size="13" x="96.50760241186669" y="13.325" font-family="Courier New" font-weight="bold" font-style="normal" text-decoration="none" family="Courier New" text-anchor="middle" size="13">api: validate, extract, </text><text id="ProcessOnText1234" fill="#323232" font-size="13" x="96.50760241186669" y="29.575" font-family="Courier New" font-weight="bold" font-style="normal" text-decoration="none" family="Courier New" text-anchor="middle" size="13">variables</text></g></g><g id="ProcessOnG1235" transform="matrix(1.0,0.0,0.0,1.0,373.84736265742,737.1770078853325)" opacity="1.0"><path id="ProcessOnPath1236" d="M0.0 0.0L214.80026166931736 0.0L214.80026166931736 45.93196647363948L0.0 45.93196647363948Z" stroke="#323232" stroke-width="1.0" stroke-dasharray="none" fill="#ffffff"/><g id="ProcessOnG1237" transform="matrix(1.0,0.0,0.0,1.0,10.0,14.840983236819739)"><text id="ProcessOnText1238" fill="#323232" font-size="13" x="0.0" y="13.325" font-family="Courier New" font-weight="bold" font-style="normal" text-decoration="none" family="Courier New" text-anchor="start" size="13">testcase: variables</text></g></g><g id="ProcessOnG1239"><path id="ProcessOnPath1240" d="M485.32806263932474 1459.0029430115128L485.32806263932474 1432.8667521832322L378.8341510181058 1432.8667521832322L378.8341510181058 1417.2087790917383" stroke="#323232" stroke-width="2.0" stroke-dasharray="none" fill="none" marker-start="url(#ProcessOnMarker1241)"/><g id="ProcessOnG1243" transform="matrix(1.0,0.0,0.0,1.0,437.32021569710867,1424.7417521832322)"><path id="ProcessOnPath1244" d="M0 0H21.0V16.25H0Z" fill="#fff" transform="matrix(1.0,0.0,0.0,1.0,-10.5,0.0)"/><text id="ProcessOnText1245" fill="#323232" font-size="13" x="0.0" y="13.325" font-family="Arial" font-weight="normal" font-style="normal" text-decoration="none" family="Arial" text-anchor="middle" size="13">add</text></g></g><g id="ProcessOnG1246" transform="matrix(1.0,0.0,0.0,1.0,408.37854469650955,1524.927937447169)" opacity="1.0"><path id="ProcessOnPath1247" d="M0.0 0.0L154.08327717118993 0.0L154.08327717118993 35.3220625528304L0.0 35.3220625528304Z" stroke="#323232" stroke-width="1.0" stroke-dasharray="none" fill="#66ff66"/><g id="ProcessOnG1248" transform="matrix(1.0,0.0,0.0,1.0,10.0,8.911031276415201)"><text id="ProcessOnText1249" fill="#323232" font-size="14" x="66.04163858559497" y="14.350000000000001" font-family="Times New Roman" font-weight="bold" font-style="normal" text-decoration="none" family="Times New Roman" text-anchor="middle" size="14">TestCase</text></g></g><g id="ProcessOnG1250" transform="matrix(1.0,0.0,0.0,1.0,233.98302374780596,1098.028136579187)" opacity="1.0"><path id="ProcessOnPath1251" d="M0.0 0.0L365.9895999927588 0.0L365.9895999927588 116.86923877273216L0.0 116.86923877273216Z" stroke="#323232" stroke-width="1.0" stroke-dasharray="none" fill="#ffffff"/><g id="ProcessOnG1252" transform="matrix(1.0,0.0,0.0,1.0,10.0,48.43461938636608)"><text id="ProcessOnText1253" fill="#323232" font-size="16" x="0.0" y="16.4" font-family="Courier New" font-weight="bold" font-style="normal" text-decoration="none" family="Courier New" text-anchor="start" size="16">unittest</text></g></g><g id="ProcessOnG1254" transform="matrix(1.0,0.0,0.0,1.0,334.1177981996935,1107.5082529067683)" opacity="1.0"><path id="ProcessOnPath1255" d="M0.0 0.0L251.563161963354 0.0L251.563161963354 43.72245577848298L0.0 43.72245577848298Z" stroke="#323232" stroke-width="1.0" stroke-dasharray="none" fill="#66ff66"/><g id="ProcessOnG1256" transform="matrix(1.0,0.0,0.0,1.0,10.0,11.86122788924149)"><text id="ProcessOnText1257" fill="#323232" font-size="16" x="114.781580981677" y="16.4" font-family="Times New Roman" font-weight="bold" font-style="normal" text-decoration="none" family="Times New Roman" text-anchor="middle" size="16">TextTestRunner()</text></g></g><g id="ProcessOnG1258" transform="matrix(1.0,0.0,0.0,1.0,334.1177981996935,1159.9368243353392)" opacity="1.0"><path id="ProcessOnPath1259" d="M0.0 0.0L251.563161963354 0.0L251.563161963354 43.72245577848298L0.0 43.72245577848298Z" stroke="#323232" stroke-width="1.0" stroke-dasharray="none" fill="#66ff66"/><g id="ProcessOnG1260" transform="matrix(1.0,0.0,0.0,1.0,10.0,11.86122788924149)"><text id="ProcessOnText1261" fill="#323232" font-size="16" x="114.781580981677" y="16.4" font-family="Times New Roman" font-weight="bold" font-style="normal" text-decoration="none" family="Times New Roman" text-anchor="middle" size="16">TestLoader()</text></g></g><g id="ProcessOnG1262" transform="matrix(1.0,0.0,0.0,1.0,232.3079358053183,1293.8278767487263)" opacity="1.0"><path id="ProcessOnPath1263" d="M0.0 0.0L158.33606527198432 0.0L158.33606527198432 34.27926610841632L0.0 34.27926610841632Z" stroke="#323232" stroke-width="1.0" stroke-dasharray="none" fill="#ccff99"/><g id="ProcessOnG1264" transform="matrix(1.0,0.0,0.0,1.0,10.0,9.014633054208161)"><text id="ProcessOnText1265" fill="#323232" font-size="13" x="68.16803263599216" y="13.325" font-family="Courier New" font-weight="bold" font-style="normal" text-decoration="none" family="Courier New" text-anchor="middle" size="13">parsed testcase</text></g></g><g id="ProcessOnG1266"><path id="ProcessOnPath1267" d="M311.47596844131044 1328.1071428571427L311.47596844131044 1336.620535573044L378.8341510181059 1336.620535573044L378.8341510181059 1344.18357459716" stroke="#323232" stroke-width="2.0" stroke-dasharray="none" fill="none" marker-end="url(#ProcessOnMarker1268)"/><g id="ProcessOnG1270" transform="matrix(1.0,0.0,0.0,1.0,344.67988288381554,1328.495535573044)"><path id="ProcessOnPath1271" d="M0 0H17.0V16.25H0Z" fill="#fff" transform="matrix(1.0,0.0,0.0,1.0,-8.5,0.0)"/><text id="ProcessOnText1272" fill="#323232" font-size="13" x="0.0" y="13.325" font-family="Arial" font-weight="normal" font-style="normal" text-decoration="none" family="Arial" text-anchor="middle" size="13">init</text></g></g><g id="ProcessOnG1273" transform="matrix(1.0,0.0,0.0,1.0,234.43565446172528,235.944370692969)" opacity="1.0"><path id="ProcessOnPath1274" d="M0.0 0.0L366.12630441645973 0.0L366.12630441645973 48.8283565797575L0.0 48.8283565797575Z" stroke="#323232" stroke-width="1.0" stroke-dasharray="none" fill="#ff99ff"/><g id="ProcessOnG1275" transform="matrix(1.0,0.0,0.0,1.0,10.0,16.28917828987875)"><text id="ProcessOnText1276" fill="#323232" font-size="13" x="172.06315220822987" y="13.325" font-family="Courier New" font-weight="bold" font-style="normal" text-decoration="none" family="Courier New" text-anchor="middle" size="13">locate debugtalk.py =&gt; PWD</text></g></g><g id="ProcessOnG1277" transform="matrix(1.0,0.0,0.0,1.0,233.95448604496886,294.33132767606537)" opacity="1.0"><path id="ProcessOnPath1278" d="M0.0 0.0L366.11895624108945 0.0L366.11895624108945 42.97375366848877L0.0 42.97375366848877Z" stroke="#323232" stroke-width="1.0" stroke-dasharray="none" fill="#ffffff"/><g id="ProcessOnG1279" transform="matrix(1.0,0.0,0.0,1.0,10.0,13.361876834244384)"><text id="ProcessOnText1280" fill="#323232" font-size="13" x="172.05947812054472" y="13.325" font-family="Courier New" font-weight="bold" font-style="normal" text-decoration="none" family="Courier New" text-anchor="middle" size="13">load custom.env / .env</text></g></g><g id="ProcessOnG1281" transform="matrix(1.0,0.0,0.0,1.0,233.60211452262854,401.8313276760655)" opacity="1.0"><path id="ProcessOnPath1282" d="M0.0 0.0L366.11895624108945 0.0L366.11895624108945 42.97375366848877L0.0 42.97375366848877Z" stroke="#323232" stroke-width="1.0" stroke-dasharray="none" fill="#ffffff"/><g id="ProcessOnG1283" transform="matrix(1.0,0.0,0.0,1.0,10.0,13.361876834244384)"><text id="ProcessOnText1284" fill="#323232" font-size="13" x="172.05947812054472" y="13.325" font-family="Courier New" font-weight="bold" font-style="normal" text-decoration="none" family="Courier New" text-anchor="middle" size="13">import debugtalk.py module</text></g></g></g></g></svg>